<?xml version="1.0" encoding="utf-8"?>
<!-- Generator: Adobe Illustrator 26.0.1, SVG Export Plug-In . SVG Version: 6.00 Build 0)  -->
<svg version="1.1" id="Layer_1" xmlns="http://www.w3.org/2000/svg" xmlns:xlink="http://www.w3.org/1999/xlink" x="0px" y="0px"
	 viewBox="0 0 612 792" style="enable-background:new 0 0 612 792;" xml:space="preserve">
<style type="text/css">
	.st0{fill:url(#SVGID_1_);}
	.st1{fill:url(#SVGID_00000106137429763447075240000007365050692380522635_);}
</style>
<g>
	<g>
		<path d="M105.54,598.6c-16.23,0-30.83-2.14-43.67-6.29s-24.04-10.44-33.47-18.75l35.74-75.88c3.02,2.64,9.82,6.29,20.39,11.07
			c10.57,4.78,23.41,7.05,38.51,7.05c12.84,0,23.66-2.39,32.34-7.05c8.68-4.66,15.98-11.95,21.77-21.9
			c5.79-9.94,11.07-22.27,15.6-37.25c4.53-14.97,9.31-32.84,14.22-53.86l43.67-202.35h92.24L299.2,396.25
			c-6.04,30.33-13.46,57.89-22.4,82.55c-8.93,24.66-20.13,46.06-33.72,64.05c-13.46,18.12-31.46,31.84-53.73,41.4
			S139.14,598.6,105.54,598.6z"/>
		<path d="M423.78,498.31c-24.54,0-47.69-4.03-69.34-12.21c-21.77-8.18-39.14-20.13-52.35-35.99l44.17-54.99
			c14.72,12.46,29.57,22.02,44.42,28.57c14.97,6.67,29.7,9.94,44.42,9.94c7.93,0,14.6-1.13,20.13-3.27
			c5.41-2.14,9.69-5.16,12.46-9.19c2.89-3.9,4.28-8.68,4.28-13.97c0-6.67-3.27-12.21-9.94-16.48c-6.67-4.28-17.49-8.68-32.59-13.09
			c-20.76-6.67-37.63-13.09-50.46-19.25c-12.84-6.17-22.4-13.46-28.57-21.77c-6.17-8.31-9.31-18.37-9.31-29.82
			c0-21.52,6.17-40.77,18.37-57.76c12.33-16.99,28.82-30.33,49.58-40.14c20.76-9.82,43.67-14.85,68.58-14.85
			c21.9,0,41.4,3.02,58.64,9.06s32.97,16.99,47.32,32.84l-46.43,53.86c-13.59-11.33-25.92-19.5-36.87-24.66
			c-10.95-5.16-22.15-7.68-33.47-7.68c-7.55,0-14.22,1.13-19.88,3.27s-10.07,5.29-13.09,9.31c-3.02,4.03-4.53,9.19-4.53,15.35
			c0,6.54,3.02,11.58,9.06,15.1c6.04,3.52,16.86,7.42,32.34,11.83c21.52,5.91,39.01,12.33,52.35,19.25
			c13.34,6.92,23.28,14.85,29.7,23.78s9.69,20.13,9.69,33.47c0,21.64-5.79,40.52-17.24,57c-11.58,16.36-27.68,29.19-48.45,38.51
			C476.13,493.65,451.85,498.31,423.78,498.31z"/>
	</g>
	<g>
		
			<linearGradient id="SVGID_1_" gradientUnits="userSpaceOnUse" x1="5.4377" y1="287.4399" x2="479.0026" y2="542.1432" gradientTransform="matrix(1 0 0 -1 0 792)">
			<stop  offset="0.0163" style="stop-color:#00AEEF"/>
			<stop  offset="0.0211" style="stop-color:#00A9E9"/>
			<stop  offset="0.056" style="stop-color:#0092D0"/>
			<stop  offset="0.0919" style="stop-color:#007EBC"/>
			<stop  offset="0.1281" style="stop-color:#006EAD"/>
			<stop  offset="0.1648" style="stop-color:#0062A2"/>
			<stop  offset="0.202" style="stop-color:#00599B"/>
			<stop  offset="0.2402" style="stop-color:#025497"/>
			<stop  offset="0.2809" style="stop-color:#0A5295"/>
			<stop  offset="0.282" style="stop-color:#0B5194"/>
			<stop  offset="0.3186" style="stop-color:#1F4080"/>
			<stop  offset="0.3611" style="stop-color:#243372"/>
			<stop  offset="0.4133" style="stop-color:#262968"/>
			<stop  offset="0.4848" style="stop-color:#262463"/>
			<stop  offset="0.6658" style="stop-color:#262262"/>
			<stop  offset="0.8725" style="stop-color:#ED683C"/>
			<stop  offset="0.9945" style="stop-color:#E93E3A"/>
		</linearGradient>
		<path class="st0" d="M105.54,598.6c-16.23,0-30.83-2.14-43.67-6.29s-24.04-10.44-33.47-18.75l35.74-75.88
			c3.02,2.64,9.82,6.29,20.39,11.07c10.57,4.78,23.41,7.05,38.51,7.05c12.84,0,23.66-2.39,32.34-7.05
			c8.68-4.66,15.98-11.95,21.77-21.9c5.79-9.94,11.07-22.27,15.6-37.25c4.53-14.97,9.31-32.84,14.22-53.86l43.67-202.35h92.24
			L299.2,396.25c-6.04,30.33-13.46,57.89-22.4,82.55c-8.93,24.66-20.13,46.06-33.72,64.05c-13.46,18.12-31.46,31.84-53.73,41.4
			S139.14,598.6,105.54,598.6z"/>
		
			<linearGradient id="SVGID_00000176722718495021215450000005982500012368011438_" gradientUnits="userSpaceOnUse" x1="39.9866" y1="223.2038" x2="513.5515" y2="477.9071" gradientTransform="matrix(1 0 0 -1 0 792)">
			<stop  offset="0.0163" style="stop-color:#00AEEF"/>
			<stop  offset="0.0211" style="stop-color:#00A9E9"/>
			<stop  offset="0.056" style="stop-color:#0092D0"/>
			<stop  offset="0.0919" style="stop-color:#007EBC"/>
			<stop  offset="0.1281" style="stop-color:#006EAD"/>
			<stop  offset="0.1648" style="stop-color:#0062A2"/>
			<stop  offset="0.202" style="stop-color:#00599B"/>
			<stop  offset="0.2402" style="stop-color:#025497"/>
			<stop  offset="0.2809" style="stop-color:#0A5295"/>
			<stop  offset="0.282" style="stop-color:#0B5194"/>
			<stop  offset="0.3186" style="stop-color:#1F4080"/>
			<stop  offset="0.3611" style="stop-color:#243372"/>
			<stop  offset="0.4133" style="stop-color:#262968"/>
			<stop  offset="0.4848" style="stop-color:#262463"/>
			<stop  offset="0.6658" style="stop-color:#262262"/>
			<stop  offset="0.8725" style="stop-color:#ED683C"/>
			<stop  offset="0.9945" style="stop-color:#E93E3A"/>
		</linearGradient>
		<path style="fill:url(#SVGID_00000176722718495021215450000005982500012368011438_);" d="M423.78,498.31
			c-24.54,0-47.69-4.03-69.34-12.21c-21.77-8.18-39.14-20.13-52.35-35.99l44.17-54.99c14.72,12.46,29.57,22.02,44.42,28.57
			c14.97,6.67,29.7,9.94,44.42,9.94c7.93,0,14.6-1.13,20.13-3.27c5.41-2.14,9.69-5.16,12.46-9.19c2.89-3.9,4.28-8.68,4.28-13.97
			c0-6.67-3.27-12.21-9.94-16.48c-6.67-4.28-17.49-8.68-32.59-13.09c-20.76-6.67-37.63-13.09-50.46-19.25
			c-12.84-6.17-22.4-13.46-28.57-21.77c-6.17-8.31-9.31-18.37-9.31-29.82c0-21.52,6.17-40.77,18.37-57.76
			c12.33-16.99,28.82-30.33,49.58-40.14c20.76-9.82,43.67-14.85,68.58-14.85c21.9,0,41.4,3.02,58.64,9.06s32.97,16.99,47.32,32.84
			l-46.43,53.86c-13.59-11.33-25.92-19.5-36.87-24.66c-10.95-5.16-22.15-7.68-33.47-7.68c-7.55,0-14.22,1.13-19.88,3.27
			s-10.07,5.29-13.09,9.31c-3.02,4.03-4.53,9.19-4.53,15.35c0,6.54,3.02,11.58,9.06,15.1c6.04,3.52,16.86,7.42,32.34,11.83
			c21.52,5.91,39.01,12.33,52.35,19.25c13.34,6.92,23.28,14.85,29.7,23.78s9.69,20.13,9.69,33.47c0,21.64-5.79,40.52-17.24,57
			c-11.58,16.36-27.68,29.19-48.45,38.51C476.13,493.65,451.85,498.31,423.78,498.31z"/>
	</g>
</g>
</svg>
